<?xml version="1.0" encoding="UTF-8" standalone="no"?>
<!DOCTYPE svg PUBLIC "-//W3C//DTD SVG 1.1//EN" "http://www.w3.org/Graphics/SVG/1.1/DTD/svg11.dtd">
<svg width="100%" height="100%" viewBox="0 0 100 100" version="1.1" xmlns="http://www.w3.org/2000/svg" xmlns:xlink="http://www.w3.org/1999/xlink" xml:space="preserve" xmlns:serif="http://www.serif.com/" style="fill-rule:evenodd;clip-rule:evenodd;stroke-linecap:round;stroke-linejoin:round;stroke-miterlimit:1.5;">
    <rect id="Artboard1" x="0" y="0" width="100" height="100" style="fill:none;"/>
    <clipPath id="_clip1">
        <rect id="Artboard11" serif:id="Artboard1" x="0" y="0" width="100" height="100"/>
    </clipPath>
    <g clip-path="url(#_clip1)">
        <g transform="matrix(1.02365,0,0,1.02365,-2.36531,-1.97109)">
            <circle cx="51.155" cy="50.77" r="48.845" style="fill:rgb(235,235,235);fill-opacity:0;"/>
            <path d="M51.155,1.926C78.113,1.926 100,23.812 100,50.77C100,77.728 78.113,99.615 51.155,99.615C24.197,99.615 2.311,77.728 2.311,50.77C2.311,23.812 24.197,1.926 51.155,1.926ZM51.155,5.833C75.957,5.833 96.092,25.969 96.092,50.77C96.092,75.572 75.957,95.707 51.155,95.707C26.354,95.707 6.218,75.572 6.218,50.77C6.218,25.969 26.354,5.833 51.155,5.833Z" style="fill:white;"/>
        </g>
        <g transform="matrix(1.0811,0,0,1.0811,-1.97346,-7.83704)">
            <g transform="matrix(1,0,0,1,-5.26316,6.67522)">
                <path d="M34.685,51.021L67.908,51.021" style="fill:none;stroke:white;stroke-width:1.03px;"/>
            </g>
            <g transform="matrix(1,0,0,1,-5.26316,6.54685)">
                <path d="M36.585,21.624L63.158,21.624L61.617,25.732L61.104,37.285L81.9,74.255L24.775,74.255L39.538,36.386L38.254,24.961L36.585,21.624Z" style="fill:none;stroke:white;stroke-width:3.7px;"/>
            </g>
            <g transform="matrix(1,0,0,1,-5.26316,6.54685)">
                <path d="M38.689,28.836L43.774,28.836" style="fill:none;stroke:white;stroke-width:3.7px;"/>
            </g>
            <g transform="matrix(1,0,0,1,-3.72272,13.3504)">
                <path d="M38.689,28.836L43.774,28.836" style="fill:none;stroke:white;stroke-width:3.7px;"/>
            </g>
            <g transform="matrix(1,0,0,1,-5.00642,19.6406)">
                <path d="M38.689,28.836L43.774,28.836" style="fill:none;stroke:white;stroke-width:3.7px;"/>
            </g>
            <g transform="matrix(1,0,0,1,-8.08729,25.8023)">
                <path d="M38.689,28.836L43.774,28.836" style="fill:none;stroke:white;stroke-width:3.7px;"/>
            </g>
            <g transform="matrix(1,0,0,1,-9.88447,31.8357)">
                <path d="M38.689,28.836L43.774,28.836" style="fill:none;stroke:white;stroke-width:3.7px;"/>
            </g>
            <g transform="matrix(1,0,0,1,-11.81,37.6123)">
                <path d="M38.689,28.836L43.774,28.836" style="fill:none;stroke:white;stroke-width:3.7px;"/>
            </g>
            <g transform="matrix(1,0,0,1,-14.3523,42.6187)">
                <path d="M38.689,28.836L43.774,28.836" style="fill:none;stroke:white;stroke-width:3.7px;"/>
            </g>
            <g transform="matrix(1,0,0,1,-16.4313,47.6252)">
                <path d="M38.689,28.836L43.774,28.836" style="fill:none;stroke:white;stroke-width:3.7px;"/>
            </g>
            <g transform="matrix(1,0,0,1,-1.79718,8.89588)">
                <circle cx="53.267" cy="43.62" r="1.971" style="fill:rgb(235,235,235);fill-opacity:0;stroke:white;stroke-width:1.03px;"/>
            </g>
            <g transform="matrix(1,0,0,1,-8.85751,4.40294)">
                <circle cx="53.267" cy="43.62" r="1.971" style="fill:rgb(235,235,235);fill-opacity:0;stroke:white;stroke-width:1.03px;"/>
            </g>
            <g transform="matrix(1,0,0,1,-11.9384,-4.3262)">
                <circle cx="53.267" cy="43.62" r="1.971" style="fill:rgb(235,235,235);fill-opacity:0;stroke:white;stroke-width:1.03px;"/>
            </g>
            <g transform="matrix(1,0,0,1,-2.82413,-8.04892)">
                <circle cx="53.267" cy="43.62" r="1.971" style="fill:rgb(235,235,235);fill-opacity:0;stroke:white;stroke-width:1.03px;"/>
            </g>
            <g transform="matrix(1,0,0,1,-11.9384,-13.0553)">
                <circle cx="53.267" cy="43.62" r="1.971" style="fill:rgb(235,235,235);fill-opacity:0;stroke:white;stroke-width:1.03px;"/>
            </g>
            <g transform="matrix(1,0,0,1,-4.74968,-17.6767)">
                <circle cx="53.267" cy="43.62" r="1.971" style="fill:rgb(235,235,235);fill-opacity:0;stroke:white;stroke-width:1.03px;"/>
            </g>
            <g transform="matrix(1,0,0,1,-14.8909,-19.8589)">
                <circle cx="53.267" cy="43.62" r="1.971" style="fill:rgb(235,235,235);fill-opacity:0;stroke:white;stroke-width:1.03px;"/>
            </g>
            <g transform="matrix(1,0,0,1,-9.11425,-20.6292)">
                <circle cx="53.267" cy="43.62" r="1.971" style="fill:rgb(235,235,235);fill-opacity:0;stroke:white;stroke-width:1.03px;"/>
            </g>
            <g transform="matrix(1,0,0,1,-1.02696,-22.6831)">
                <circle cx="53.267" cy="43.62" r="1.971" style="fill:rgb(235,235,235);fill-opacity:0;stroke:white;stroke-width:1.03px;"/>
            </g>
            <g transform="matrix(1,0,0,1,-6.03338,-24.9937)">
                <circle cx="53.267" cy="43.62" r="1.971" style="fill:rgb(235,235,235);fill-opacity:0;stroke:white;stroke-width:1.03px;"/>
            </g>
            <g transform="matrix(1,0,0,1,3.97946,-20.5008)">
                <circle cx="53.267" cy="43.62" r="1.971" style="fill:rgb(235,235,235);fill-opacity:0;stroke:white;stroke-width:1.03px;"/>
            </g>
            <g transform="matrix(1,0,0,1,4.49294,-25.5072)">
                <circle cx="53.267" cy="43.62" r="1.971" style="fill:rgb(235,235,235);fill-opacity:0;stroke:white;stroke-width:1.03px;"/>
            </g>
            <g transform="matrix(1,0,0,1,9.62773,-21.7845)">
                <circle cx="53.267" cy="43.62" r="1.971" style="fill:rgb(235,235,235);fill-opacity:0;stroke:white;stroke-width:1.03px;"/>
            </g>
            <g transform="matrix(1,0,0,1,9.24262,-16.5213)">
                <circle cx="53.267" cy="43.62" r="1.971" style="fill:rgb(235,235,235);fill-opacity:0;stroke:white;stroke-width:1.03px;"/>
            </g>
            <g transform="matrix(1,0,0,1,14.8909,-15.366)">
                <circle cx="53.267" cy="43.62" r="1.971" style="fill:rgb(235,235,235);fill-opacity:0;stroke:white;stroke-width:1.03px;"/>
            </g>
            <g transform="matrix(1,0,0,1,11.1682,-11.1298)">
                <circle cx="53.267" cy="43.62" r="1.971" style="fill:rgb(235,235,235);fill-opacity:0;stroke:white;stroke-width:1.03px;"/>
            </g>
        </g>
    </g>
</svg>
